<svg width="20" height="20" viewBox="0 0 20 20" fill="none" xmlns="http://www.w3.org/2000/svg">
<path d="M19.2746 18.4495L14.8059 13.9808H14.7577C16.1351 12.3567 16.8312 10.263 16.7003 8.13749C16.5694 6.01202 15.6217 4.01949 14.0555 2.5767C12.4893 1.1339 10.4258 0.352616 8.29678 0.396267C6.16773 0.439917 4.13803 1.30512 2.63225 2.8109C1.12648 4.31668 0.261267 6.34638 0.217617 8.47542C0.173966 10.6045 0.955254 12.6679 2.39805 14.2342C3.84084 15.8004 5.83337 16.7481 7.95884 16.8789C10.0843 17.0098 12.1781 16.3138 13.8021 14.9364C13.8021 14.9364 13.8021 14.9707 13.8021 14.9845L18.2709 19.4532C18.3348 19.5177 18.4108 19.5688 18.4946 19.6037C18.5784 19.6386 18.6682 19.6566 18.759 19.6566C18.8497 19.6566 18.9396 19.6386 19.0234 19.6037C19.1072 19.5688 19.1832 19.5177 19.2471 19.4532C19.3176 19.3908 19.3745 19.3146 19.4143 19.2293C19.4541 19.144 19.476 19.0514 19.4786 18.9573C19.4812 18.8632 19.4644 18.7696 19.4293 18.6822C19.3942 18.5949 19.3416 18.5157 19.2746 18.4495ZM8.47398 15.5001C7.11423 15.5001 5.78502 15.0969 4.65443 14.3415C3.52384 13.586 2.64266 12.5123 2.1223 11.2561C1.60195 9.99983 1.4658 8.6175 1.73108 7.28388C1.99635 5.95026 2.65113 4.72525 3.61262 3.76377C4.5741 2.80228 5.79911 2.1475 7.13273 1.88223C8.46635 1.61695 9.84868 1.7531 11.1049 2.27345C12.3612 2.79381 13.4349 3.67499 14.1903 4.80558C14.9458 5.93617 15.349 7.26538 15.349 8.62512C15.349 9.52796 15.1712 10.422 14.8257 11.2561C14.4802 12.0902 13.9737 12.8481 13.3353 13.4865C12.6969 14.1249 11.939 14.6313 11.1049 14.9768C10.2708 15.3223 9.37682 15.5001 8.47398 15.5001Z" fill="#B99F75"/>
</svg>
